<?xml version="1.0" encoding="UTF-8" standalone="no"?>
<!DOCTYPE svg PUBLIC "-//W3C//DTD SVG 1.1//EN"
 "http://www.w3.org/Graphics/SVG/1.1/DTD/svg11.dtd">
<!-- Generated by graphviz version 7.1.0 (20230121.1956)
 -->
<!-- Pages: 1 -->
<svg width="686pt" height="1474pt"
 viewBox="0.00 0.00 686.29 1474.00" xmlns="http://www.w3.org/2000/svg" xmlns:xlink="http://www.w3.org/1999/xlink">
<g id="graph0" class="graph" transform="scale(1 1) rotate(0) translate(4 1470)">
<polygon fill="white" stroke="none" points="-4,4 -4,-1470 682.29,-1470 682.29,4 -4,4"/>
<!-- is_apple_music_available -->
<g id="node1" class="node">
<title>is_apple_music_available</title>
<polygon fill="gray" stroke="black" points="459,-1466 365,-1428 459,-1390 553,-1428 459,-1466"/>
<text text-anchor="middle" x="459" y="-1431.8" font-family="Calibri" font-size="14.00">Available in</text>
<text text-anchor="middle" x="459" y="-1416.8" font-family="Calibri" font-size="14.00">Apple Music?</text>
</g>
<!-- is_lossless -->
<g id="node2" class="node">
<title>is_lossless</title>
<polygon fill="gray" stroke="black" points="358,-1339 292.98,-1321 358,-1303 423.02,-1321 358,-1339"/>
<text text-anchor="middle" x="358" y="-1317.3" font-family="Calibri" font-size="14.00">Lossless?</text>
</g>
<!-- is_apple_music_available&#45;&gt;is_lossless -->
<g id="edge2" class="edge">
<title>is_apple_music_available&#45;&gt;is_lossless</title>
<path fill="none" stroke="black" d="M433.25,-1400.23C416.33,-1382.64 394.48,-1359.93 378.69,-1343.51"/>
<polygon fill="black" stroke="black" points="381.55,-1341.43 372.09,-1336.65 376.5,-1346.28 381.55,-1341.43"/>
<text text-anchor="middle" x="414" y="-1360.8" font-family="Calibri" font-size="14.00">no</text>
</g>
<!-- apple_music_matches -->
<g id="node7" class="node">
<title>apple_music_matches</title>
<ellipse fill="yellow" stroke="black" cx="560" cy="-1321" rx="118.08" ry="18"/>
<text text-anchor="middle" x="560" y="-1317.3" font-family="Calibri" font-size="14.00">apple&#45;music&#45;matches[&#45;lossy]</text>
</g>
<!-- is_apple_music_available&#45;&gt;apple_music_matches -->
<g id="edge1" class="edge">
<title>is_apple_music_available&#45;&gt;apple_music_matches</title>
<path fill="none" stroke="black" d="M484.75,-1400.23C500.48,-1383.88 520.46,-1363.11 535.88,-1347.08"/>
<polygon fill="black" stroke="black" points="538.02,-1349.9 542.43,-1340.27 532.97,-1345.05 538.02,-1349.9"/>
<text text-anchor="middle" x="535" y="-1360.8" font-family="Calibri" font-size="14.00">yes</text>
</g>
<!-- is_vgmdb_available -->
<g id="node3" class="node">
<title>is_vgmdb_available</title>
<polygon fill="gray" stroke="black" points="302,-815 216,-777 302,-739 388,-777 302,-815"/>
<text text-anchor="middle" x="302" y="-780.8" font-family="Calibri" font-size="14.00">Available on</text>
<text text-anchor="middle" x="302" y="-765.8" font-family="Calibri" font-size="14.00">vgmdb.net?</text>
</g>
<!-- is_lossless&#45;&gt;is_vgmdb_available -->
<g id="edge3" class="edge">
<title>is_lossless&#45;&gt;is_vgmdb_available</title>
<path fill="none" stroke="black" d="M373.88,-1307.25C394.54,-1289.13 428,-1253.78 428,-1215 428,-1215 428,-1215 428,-869 428,-833.94 395.54,-811.03 363.57,-796.96"/>
<polygon fill="black" stroke="black" points="365.23,-793.86 354.65,-793.28 362.56,-800.33 365.23,-793.86"/>
<text text-anchor="middle" x="438" y="-1019.8" font-family="Calibri" font-size="14.00">yes</text>
</g>
<!-- have_physical_media -->
<g id="node5" class="node">
<title>have_physical_media</title>
<polygon fill="gray" stroke="black" points="288,-1252 225,-1214 288,-1176 351,-1214 288,-1252"/>
<text text-anchor="middle" x="288" y="-1217.8" font-family="Calibri" font-size="14.00">Physical</text>
<text text-anchor="middle" x="288" y="-1202.8" font-family="Calibri" font-size="14.00">media?</text>
</g>
<!-- is_lossless&#45;&gt;have_physical_media -->
<g id="edge16" class="edge">
<title>is_lossless&#45;&gt;have_physical_media</title>
<path fill="none" stroke="black" d="M348.27,-1305.4C338.93,-1291.39 324.44,-1269.66 312.02,-1251.02"/>
<polygon fill="black" stroke="black" points="315.04,-1249.25 306.58,-1242.87 309.22,-1253.14 315.04,-1249.25"/>
<text text-anchor="middle" x="342" y="-1273.8" font-family="Calibri" font-size="14.00">no</text>
</g>
<!-- icloud_music_pending_tags -->
<g id="node10" class="node">
<title>icloud_music_pending_tags</title>
<ellipse fill="yellow" stroke="black" cx="198" cy="-670" rx="109.68" ry="18"/>
<text text-anchor="middle" x="198" y="-666.3" font-family="Calibri" font-size="14.00">icloud&#45;music&#45;pending&#45;tags</text>
</g>
<!-- is_vgmdb_available&#45;&gt;icloud_music_pending_tags -->
<g id="edge4" class="edge">
<title>is_vgmdb_available&#45;&gt;icloud_music_pending_tags</title>
<path fill="none" stroke="black" d="M276.29,-750.04C260,-733.6 239.04,-712.44 222.91,-696.15"/>
<polygon fill="black" stroke="black" points="225.55,-693.84 216.03,-689.2 220.58,-698.77 225.55,-693.84"/>
<text text-anchor="middle" x="257" y="-709.8" font-family="Calibri" font-size="14.00">yes</text>
</g>
<!-- convert_flac_to_alac -->
<g id="node16" class="node">
<title>convert_flac_to_alac</title>
<polygon fill="lightblue" stroke="black" points="382.5,-634 261.5,-634 261.5,-581 382.5,-581 382.5,-634"/>
<text text-anchor="middle" x="322" y="-618.8" font-family="Calibri" font-size="14.00">Convert FLAC</text>
<text text-anchor="middle" x="322" y="-603.8" font-family="Calibri" font-size="14.00">or WAV to ALAC</text>
<text text-anchor="middle" x="322" y="-588.8" font-family="Calibri" font-size="14.00">(leave WMA as&#45;is)</text>
</g>
<!-- is_vgmdb_available&#45;&gt;convert_flac_to_alac -->
<g id="edge14" class="edge">
<title>is_vgmdb_available&#45;&gt;convert_flac_to_alac</title>
<path fill="none" stroke="black" d="M308.69,-741.85C311.65,-725.6 314.92,-705.86 317,-688 318.61,-674.19 319.72,-658.96 320.49,-645.56"/>
<polygon fill="black" stroke="black" points="323.97,-646.02 320.99,-635.85 316.98,-645.66 323.97,-646.02"/>
<text text-anchor="middle" x="323" y="-709.8" font-family="Calibri" font-size="14.00">no</text>
</g>
<!-- itunes_matched -->
<g id="node4" class="node">
<title>itunes_matched</title>
<polygon fill="gray" stroke="black" points="198,-344 124,-306 198,-268 272,-306 198,-344"/>
<text text-anchor="middle" x="198" y="-309.8" font-family="Calibri" font-size="14.00">iTunes</text>
<text text-anchor="middle" x="198" y="-294.8" font-family="Calibri" font-size="14.00">matched?</text>
</g>
<!-- itunes_store_matches -->
<g id="node8" class="node">
<title>itunes_store_matches</title>
<ellipse fill="yellow" stroke="black" cx="159" cy="-145" rx="118.08" ry="18"/>
<text text-anchor="middle" x="159" y="-141.3" font-family="Calibri" font-size="14.00">itunes&#45;store&#45;matches[&#45;lossy]</text>
</g>
<!-- itunes_matched&#45;&gt;itunes_store_matches -->
<g id="edge9" class="edge">
<title>itunes_matched&#45;&gt;itunes_store_matches</title>
<path fill="none" stroke="black" d="M189.82,-271.67C182.74,-242.79 172.61,-201.49 165.92,-174.22"/>
<polygon fill="black" stroke="black" points="169.34,-173.47 163.56,-164.59 162.54,-175.14 169.34,-173.47"/>
<text text-anchor="middle" x="195" y="-238.8" font-family="Calibri" font-size="14.00">yes</text>
</g>
<!-- add_to_icloud_library -->
<g id="node18" class="node">
<title>add_to_icloud_library</title>
<polygon fill="lightblue" stroke="black" points="352.5,-217 215.5,-217 215.5,-181 352.5,-181 352.5,-217"/>
<text text-anchor="middle" x="284" y="-195.3" font-family="Calibri" font-size="14.00">Add to iCloud Library</text>
</g>
<!-- itunes_matched&#45;&gt;add_to_icloud_library -->
<g id="edge10" class="edge">
<title>itunes_matched&#45;&gt;add_to_icloud_library</title>
<path fill="none" stroke="black" d="M219.48,-278.77C232.62,-262.73 249.38,-242.27 262.52,-226.23"/>
<polygon fill="black" stroke="black" points="265.2,-228.48 268.83,-218.53 259.78,-224.04 265.2,-228.48"/>
<text text-anchor="middle" x="262" y="-238.8" font-family="Calibri" font-size="14.00">no</text>
</g>
<!-- lossy_format -->
<g id="node6" class="node">
<title>lossy_format</title>
<polygon fill="gray" stroke="black" points="102,-1125 46,-1087 102,-1049 158,-1087 102,-1125"/>
<text text-anchor="middle" x="102" y="-1090.8" font-family="Calibri" font-size="14.00">Lossy</text>
<text text-anchor="middle" x="102" y="-1075.8" font-family="Calibri" font-size="14.00">format</text>
</g>
<!-- have_physical_media&#45;&gt;lossy_format -->
<g id="edge20" class="edge">
<title>have_physical_media&#45;&gt;lossy_format</title>
<path fill="none" stroke="black" d="M258.53,-1193.19C226.22,-1171.48 174.33,-1136.61 139.24,-1113.03"/>
<polygon fill="black" stroke="black" points="141.32,-1110.21 131.07,-1107.54 137.42,-1116.02 141.32,-1110.21"/>
<text text-anchor="middle" x="215" y="-1146.8" font-family="Calibri" font-size="14.00">no</text>
</g>
<!-- icloud_music_pending_rerip -->
<g id="node9" class="node">
<title>icloud_music_pending_rerip</title>
<ellipse fill="yellow" stroke="black" cx="288" cy="-1087" rx="112.38" ry="18"/>
<text text-anchor="middle" x="288" y="-1083.3" font-family="Calibri" font-size="14.00">icloud&#45;music&#45;pending&#45;rerip</text>
</g>
<!-- have_physical_media&#45;&gt;icloud_music_pending_rerip -->
<g id="edge17" class="edge">
<title>have_physical_media&#45;&gt;icloud_music_pending_rerip</title>
<path fill="none" stroke="black" d="M288,-1175.5C288,-1156.66 288,-1134.19 288,-1116.74"/>
<polygon fill="black" stroke="black" points="291.5,-1116.82 288,-1106.82 284.5,-1116.82 291.5,-1116.82"/>
<text text-anchor="middle" x="298" y="-1146.8" font-family="Calibri" font-size="14.00">yes</text>
</g>
<!-- supported_lossy_format -->
<g id="node13" class="node">
<title>supported_lossy_format</title>
<polygon fill="lightblue" stroke="black" points="120,-998 0,-998 0,-960 120,-960 120,-998"/>
<text text-anchor="middle" x="60" y="-982.8" font-family="Calibri" font-size="14.00">Supported format</text>
<text text-anchor="middle" x="60" y="-967.8" font-family="Calibri" font-size="14.00">(aac, mp3)</text>
</g>
<!-- lossy_format&#45;&gt;supported_lossy_format -->
<g id="edge21" class="edge">
<title>lossy_format&#45;&gt;supported_lossy_format</title>
<path fill="none" stroke="black" d="M90.3,-1056.47C84.42,-1041.63 77.32,-1023.72 71.47,-1008.96"/>
<polygon fill="black" stroke="black" points="74.78,-1007.8 67.84,-999.8 68.27,-1010.38 74.78,-1007.8"/>
</g>
<!-- unsupported_lossy_format -->
<g id="node14" class="node">
<title>unsupported_lossy_format</title>
<polygon fill="lightblue" stroke="black" points="274,-998 138,-998 138,-960 274,-960 274,-998"/>
<text text-anchor="middle" x="206" y="-982.8" font-family="Calibri" font-size="14.00">Unsupported format</text>
<text text-anchor="middle" x="206" y="-967.8" font-family="Calibri" font-size="14.00">(wma, ogg)</text>
</g>
<!-- lossy_format&#45;&gt;unsupported_lossy_format -->
<g id="edge24" class="edge">
<title>lossy_format&#45;&gt;unsupported_lossy_format</title>
<path fill="none" stroke="black" d="M124.06,-1063.52C140.45,-1046.81 162.88,-1023.95 180.12,-1006.38"/>
<polygon fill="black" stroke="black" points="182.56,-1008.89 187.06,-999.3 177.56,-1003.99 182.56,-1008.89"/>
</g>
<!-- remove_itunes_media -->
<g id="node19" class="node">
<title>remove_itunes_media</title>
<polygon fill="lightblue" stroke="black" points="236,-36 94,-36 94,0 236,0 236,-36"/>
<text text-anchor="middle" x="165" y="-14.3" font-family="Calibri" font-size="14.00">Remove iTunes media</text>
</g>
<!-- itunes_store_matches&#45;&gt;remove_itunes_media -->
<g id="edge13" class="edge">
<title>itunes_store_matches&#45;&gt;remove_itunes_media</title>
<path fill="none" stroke="black" d="M159.83,-126.62C160.81,-106.19 162.46,-71.99 163.63,-47.62"/>
<polygon fill="black" stroke="black" points="167.12,-47.9 164.1,-37.74 160.12,-47.57 167.12,-47.9"/>
</g>
<!-- rip_media -->
<g id="node12" class="node">
<title>rip_media</title>
<polygon fill="lightblue" stroke="black" points="338.5,-942 265.5,-942 265.5,-906 338.5,-906 338.5,-942"/>
<text text-anchor="middle" x="302" y="-920.3" font-family="Calibri" font-size="14.00">Rip media</text>
</g>
<!-- icloud_music_pending_rerip&#45;&gt;rip_media -->
<g id="edge18" class="edge">
<title>icloud_music_pending_rerip&#45;&gt;rip_media</title>
<path fill="none" stroke="black" d="M289.5,-1068.77C291.9,-1041.17 296.63,-986.77 299.53,-953.37"/>
<polygon fill="black" stroke="black" points="303,-953.88 300.38,-943.61 296.03,-953.27 303,-953.88"/>
</g>
<!-- convert_to_alac -->
<g id="node20" class="node">
<title>convert_to_alac</title>
<polygon fill="lightblue" stroke="black" points="252.5,-563 143.5,-563 143.5,-527 252.5,-527 252.5,-563"/>
<text text-anchor="middle" x="198" y="-541.3" font-family="Calibri" font-size="14.00">convert_to_alac</text>
</g>
<!-- icloud_music_pending_tags&#45;&gt;convert_to_alac -->
<g id="edge5" class="edge">
<title>icloud_music_pending_tags&#45;&gt;convert_to_alac</title>
<path fill="none" stroke="black" d="M198,-651.64C198,-631.68 198,-598.6 198,-574.77"/>
<polygon fill="black" stroke="black" points="201.5,-574.79 198,-564.79 194.5,-574.79 201.5,-574.79"/>
</g>
<!-- icloud_music_uploads -->
<g id="node11" class="node">
<title>icloud_music_uploads</title>
<ellipse fill="yellow" stroke="black" cx="299" cy="-91" rx="118.08" ry="18"/>
<text text-anchor="middle" x="299" y="-87.3" font-family="Calibri" font-size="14.00">icloud&#45;music&#45;uploads[&#45;lossy]</text>
</g>
<!-- icloud_music_uploads&#45;&gt;remove_itunes_media -->
<g id="edge12" class="edge">
<title>icloud_music_uploads&#45;&gt;remove_itunes_media</title>
<path fill="none" stroke="black" d="M267.58,-73.35C249.75,-63.9 227.17,-51.94 207.74,-41.65"/>
<polygon fill="black" stroke="black" points="209.43,-38.58 198.96,-36.99 206.15,-44.77 209.43,-38.58"/>
</g>
<!-- rip_media&#45;&gt;is_vgmdb_available -->
<g id="edge19" class="edge">
<title>rip_media&#45;&gt;is_vgmdb_available</title>
<path fill="none" stroke="black" d="M302,-905.51C302,-886.07 302,-853.82 302,-826.62"/>
<polygon fill="black" stroke="black" points="305.5,-826.84 302,-816.84 298.5,-826.84 305.5,-826.84"/>
</g>
<!-- acquire_lossless -->
<g id="node15" class="node">
<title>acquire_lossless</title>
<polygon fill="lightblue" stroke="black" points="260,-888 152,-888 152,-852 260,-852 260,-888"/>
<text text-anchor="middle" x="206" y="-866.3" font-family="Calibri" font-size="14.00">Acquire lossless</text>
</g>
<!-- supported_lossy_format&#45;&gt;acquire_lossless -->
<g id="edge23" class="edge">
<title>supported_lossy_format&#45;&gt;acquire_lossless</title>
<path fill="none" stroke="black" d="M85.1,-959.61C109.46,-941.75 146.56,-914.56 173.23,-895.01"/>
<polygon fill="black" stroke="black" points="174.98,-898.07 180.98,-889.34 170.84,-892.43 174.98,-898.07"/>
</g>
<!-- copy_to_itunes_media -->
<g id="node17" class="node">
<title>copy_to_itunes_media</title>
<polygon fill="lightblue" stroke="black" points="287,-417 109,-417 109,-381 287,-381 287,-417"/>
<text text-anchor="middle" x="198" y="-395.3" font-family="Calibri" font-size="14.00">Copy to iTunes Media folder</text>
</g>
<!-- supported_lossy_format&#45;&gt;copy_to_itunes_media -->
<g id="edge22" class="edge">
<title>supported_lossy_format&#45;&gt;copy_to_itunes_media</title>
<path fill="none" stroke="black" d="M60,-959.82C60,-938.54 60,-902.21 60,-871 60,-871 60,-871 60,-471 60,-447.05 76.64,-431.17 98.36,-420.65"/>
<polygon fill="black" stroke="black" points="99.49,-423.98 107.27,-416.78 96.7,-417.55 99.49,-423.98"/>
</g>
<!-- unsupported_lossy_format&#45;&gt;acquire_lossless -->
<g id="edge25" class="edge">
<title>unsupported_lossy_format&#45;&gt;acquire_lossless</title>
<path fill="none" stroke="black" d="M206,-959.85C206,-943.34 206,-918.69 206,-899.55"/>
<polygon fill="black" stroke="black" points="209.5,-899.69 206,-889.69 202.5,-899.69 209.5,-899.69"/>
</g>
<!-- acquire_lossless&#45;&gt;is_vgmdb_available -->
<g id="edge26" class="edge">
<title>acquire_lossless&#45;&gt;is_vgmdb_available</title>
<path fill="none" stroke="black" d="M224.06,-851.88C236.13,-840.44 252.42,-825 266.99,-811.19"/>
<polygon fill="black" stroke="black" points="269.37,-813.75 274.22,-804.34 264.55,-808.67 269.37,-813.75"/>
</g>
<!-- convert_flac_to_alac&#45;&gt;copy_to_itunes_media -->
<g id="edge15" class="edge">
<title>convert_flac_to_alac&#45;&gt;copy_to_itunes_media</title>
<path fill="none" stroke="black" d="M314.67,-580.51C304.89,-548.71 285.45,-494.16 257,-454 249.44,-443.33 239.46,-433.2 229.86,-424.66"/>
<polygon fill="black" stroke="black" points="232.26,-422.11 222.39,-418.28 227.72,-427.43 232.26,-422.11"/>
</g>
<!-- copy_to_itunes_media&#45;&gt;itunes_matched -->
<g id="edge8" class="edge">
<title>copy_to_itunes_media&#45;&gt;itunes_matched</title>
<path fill="none" stroke="black" d="M198,-380.88C198,-373.64 198,-364.81 198,-355.8"/>
<polygon fill="black" stroke="black" points="201.5,-355.91 198,-345.91 194.5,-355.91 201.5,-355.91"/>
</g>
<!-- add_to_icloud_library&#45;&gt;icloud_music_uploads -->
<g id="edge11" class="edge">
<title>add_to_icloud_library&#45;&gt;icloud_music_uploads</title>
<path fill="none" stroke="black" d="M286.41,-180.97C288.71,-164.69 292.23,-139.82 294.96,-120.52"/>
<polygon fill="black" stroke="black" points="298.4,-121.23 296.33,-110.84 291.47,-120.25 298.4,-121.23"/>
</g>
<!-- vgmdb_scripts -->
<g id="node21" class="node">
<title>vgmdb_scripts</title>
<polygon fill="lightblue" stroke="black" points="248.5,-490 147.5,-490 147.5,-454 248.5,-454 248.5,-490"/>
<text text-anchor="middle" x="198" y="-468.3" font-family="Calibri" font-size="14.00">vgmdb_scripts</text>
</g>
<!-- convert_to_alac&#45;&gt;vgmdb_scripts -->
<g id="edge6" class="edge">
<title>convert_to_alac&#45;&gt;vgmdb_scripts</title>
<path fill="none" stroke="black" d="M198,-526.81C198,-519.23 198,-510.1 198,-501.54"/>
<polygon fill="black" stroke="black" points="201.5,-501.54 198,-491.54 194.5,-501.54 201.5,-501.54"/>
</g>
<!-- vgmdb_scripts&#45;&gt;copy_to_itunes_media -->
<g id="edge7" class="edge">
<title>vgmdb_scripts&#45;&gt;copy_to_itunes_media</title>
<path fill="none" stroke="black" d="M198,-453.81C198,-446.23 198,-437.1 198,-428.54"/>
<polygon fill="black" stroke="black" points="201.5,-428.54 198,-418.54 194.5,-428.54 201.5,-428.54"/>
</g>
</g>
</svg>
