<?xml version="1.0" encoding="UTF-8" standalone="no"?>
<!DOCTYPE svg PUBLIC "-//W3C//DTD SVG 1.1//EN"
 "http://www.w3.org/Graphics/SVG/1.1/DTD/svg11.dtd">
<!-- Generated by graphviz version 7.1.0 (20230121.1956)
 -->
<!-- Pages: 1 -->
<svg width="721pt" height="1605pt"
 viewBox="0.00 0.00 721.29 1605.00" xmlns="http://www.w3.org/2000/svg" xmlns:xlink="http://www.w3.org/1999/xlink">
<g id="graph0" class="graph" transform="scale(1 1) rotate(0) translate(4 1601)">
<polygon fill="white" stroke="none" points="-4,4 -4,-1601 717.29,-1601 717.29,4 -4,4"/>
<!-- is_apple_music_available -->
<g id="node1" class="node">
<title>is_apple_music_available</title>
<polygon fill="lightgray" stroke="black" points="409,-1597 315,-1559 409,-1521 503,-1559 409,-1597"/>
<text text-anchor="middle" x="409" y="-1562.8" font-family="Calibri" font-size="14.00">Available in</text>
<text text-anchor="middle" x="409" y="-1547.8" font-family="Calibri" font-size="14.00">Apple Music?</text>
</g>
<!-- is_apple_music_complete -->
<g id="node2" class="node">
<title>is_apple_music_complete</title>
<polygon fill="lightgray" stroke="black" points="553,-1470 427,-1432 553,-1394 679,-1432 553,-1470"/>
<text text-anchor="middle" x="553" y="-1435.8" font-family="Calibri" font-size="14.00">Apple Music album</text>
<text text-anchor="middle" x="553" y="-1420.8" font-family="Calibri" font-size="14.00">is complete?</text>
</g>
<!-- is_apple_music_available&#45;&gt;is_apple_music_complete -->
<g id="edge1" class="edge">
<title>is_apple_music_available&#45;&gt;is_apple_music_complete</title>
<path fill="none" stroke="black" d="M438.49,-1532.4C459.89,-1513.83 489.09,-1488.48 512.65,-1468.03"/>
<polygon fill="black" stroke="black" points="514.65,-1470.92 519.91,-1461.73 510.06,-1465.64 514.65,-1470.92"/>
<text text-anchor="middle" x="500" y="-1491.8" font-family="Calibri" font-size="14.00">yes</text>
</g>
<!-- is_lossless -->
<g id="node3" class="node">
<title>is_lossless</title>
<polygon fill="lightgray" stroke="black" points="393,-1343 327.98,-1325 393,-1307 458.02,-1325 393,-1343"/>
<text text-anchor="middle" x="393" y="-1321.3" font-family="Calibri" font-size="14.00">Lossless?</text>
</g>
<!-- is_apple_music_available&#45;&gt;is_lossless -->
<g id="edge4" class="edge">
<title>is_apple_music_available&#45;&gt;is_lossless</title>
<path fill="none" stroke="black" d="M406,-1522.05C404.71,-1506.11 403.22,-1487.12 402,-1470 399.14,-1429.77 396.32,-1383.19 394.62,-1354.15"/>
<polygon fill="black" stroke="black" points="398.12,-1354.15 394.05,-1344.37 391.14,-1354.55 398.12,-1354.15"/>
<text text-anchor="middle" x="410" y="-1428.3" font-family="Calibri" font-size="14.00">no</text>
</g>
<!-- is_apple_music_complete&#45;&gt;is_lossless -->
<g id="edge3" class="edge">
<title>is_apple_music_complete&#45;&gt;is_lossless</title>
<path fill="none" stroke="black" d="M513.86,-1405.31C485.11,-1386.45 446.74,-1361.27 421.01,-1344.38"/>
<polygon fill="black" stroke="black" points="423.04,-1341.53 412.76,-1338.96 419.2,-1347.38 423.04,-1341.53"/>
<text text-anchor="middle" x="477" y="-1364.8" font-family="Calibri" font-size="14.00">no</text>
</g>
<!-- apple_music_matches -->
<g id="node8" class="node">
<title>apple_music_matches</title>
<ellipse fill="yellow" stroke="black" cx="595" cy="-1325" rx="118.08" ry="18"/>
<text text-anchor="middle" x="595" y="-1321.3" font-family="Calibri" font-size="14.00">apple&#45;music&#45;matches[&#45;lossy]</text>
</g>
<!-- is_apple_music_complete&#45;&gt;apple_music_matches -->
<g id="edge2" class="edge">
<title>is_apple_music_complete&#45;&gt;apple_music_matches</title>
<path fill="none" stroke="black" d="M566.29,-1397.78C571.92,-1383.7 578.41,-1367.47 583.8,-1354"/>
<polygon fill="black" stroke="black" points="586.99,-1355.45 587.46,-1344.86 580.49,-1352.85 586.99,-1355.45"/>
<text text-anchor="middle" x="590" y="-1364.8" font-family="Calibri" font-size="14.00">yes</text>
</g>
<!-- is_vgmdb_available -->
<g id="node4" class="node">
<title>is_vgmdb_available</title>
<polygon fill="lightgray" stroke="black" points="302,-819 216,-781 302,-743 388,-781 302,-819"/>
<text text-anchor="middle" x="302" y="-784.8" font-family="Calibri" font-size="14.00">Available on</text>
<text text-anchor="middle" x="302" y="-769.8" font-family="Calibri" font-size="14.00">vgmdb.net?</text>
</g>
<!-- is_lossless&#45;&gt;is_vgmdb_available -->
<g id="edge5" class="edge">
<title>is_lossless&#45;&gt;is_vgmdb_available</title>
<path fill="none" stroke="black" d="M401.47,-1308.87C411.83,-1288.93 428,-1252.43 428,-1219 428,-1219 428,-1219 428,-873 428,-837.94 395.54,-815.03 363.57,-800.96"/>
<polygon fill="black" stroke="black" points="365.23,-797.86 354.65,-797.28 362.56,-804.33 365.23,-797.86"/>
<text text-anchor="middle" x="438" y="-1023.8" font-family="Calibri" font-size="14.00">yes</text>
</g>
<!-- have_physical_media -->
<g id="node6" class="node">
<title>have_physical_media</title>
<polygon fill="lightgray" stroke="black" points="288,-1256 225,-1218 288,-1180 351,-1218 288,-1256"/>
<text text-anchor="middle" x="288" y="-1221.8" font-family="Calibri" font-size="14.00">Physical</text>
<text text-anchor="middle" x="288" y="-1206.8" font-family="Calibri" font-size="14.00">media?</text>
</g>
<!-- is_lossless&#45;&gt;have_physical_media -->
<g id="edge18" class="edge">
<title>is_lossless&#45;&gt;have_physical_media</title>
<path fill="none" stroke="black" d="M379.7,-1310.7C364.57,-1295.57 339.34,-1270.34 319.17,-1250.17"/>
<polygon fill="black" stroke="black" points="321.78,-1247.83 312.23,-1243.23 316.83,-1252.78 321.78,-1247.83"/>
<text text-anchor="middle" x="365" y="-1277.8" font-family="Calibri" font-size="14.00">no</text>
</g>
<!-- icloud_music_pending_tags -->
<g id="node11" class="node">
<title>icloud_music_pending_tags</title>
<ellipse fill="yellow" stroke="black" cx="198" cy="-674" rx="109.68" ry="18"/>
<text text-anchor="middle" x="198" y="-670.3" font-family="Calibri" font-size="14.00">icloud&#45;music&#45;pending&#45;tags</text>
</g>
<!-- is_vgmdb_available&#45;&gt;icloud_music_pending_tags -->
<g id="edge6" class="edge">
<title>is_vgmdb_available&#45;&gt;icloud_music_pending_tags</title>
<path fill="none" stroke="black" d="M276.29,-754.04C260,-737.6 239.04,-716.44 222.91,-700.15"/>
<polygon fill="black" stroke="black" points="225.55,-697.84 216.03,-693.2 220.58,-702.77 225.55,-697.84"/>
<text text-anchor="middle" x="257" y="-713.8" font-family="Calibri" font-size="14.00">yes</text>
</g>
<!-- convert_flac_to_alac -->
<g id="node17" class="node">
<title>convert_flac_to_alac</title>
<polygon fill="lightblue" stroke="black" points="382.5,-638 261.5,-638 261.5,-585 382.5,-585 382.5,-638"/>
<text text-anchor="middle" x="322" y="-622.8" font-family="Calibri" font-size="14.00">Convert FLAC</text>
<text text-anchor="middle" x="322" y="-607.8" font-family="Calibri" font-size="14.00">or WAV to ALAC</text>
<text text-anchor="middle" x="322" y="-592.8" font-family="Calibri" font-size="14.00">(leave WMA as&#45;is)</text>
</g>
<!-- is_vgmdb_available&#45;&gt;convert_flac_to_alac -->
<g id="edge16" class="edge">
<title>is_vgmdb_available&#45;&gt;convert_flac_to_alac</title>
<path fill="none" stroke="black" d="M308.69,-745.85C311.65,-729.6 314.92,-709.86 317,-692 318.61,-678.19 319.72,-662.96 320.49,-649.56"/>
<polygon fill="black" stroke="black" points="323.97,-650.02 320.99,-639.85 316.98,-649.66 323.97,-650.02"/>
<text text-anchor="middle" x="323" y="-713.8" font-family="Calibri" font-size="14.00">no</text>
</g>
<!-- itunes_matched -->
<g id="node5" class="node">
<title>itunes_matched</title>
<polygon fill="lightgray" stroke="black" points="198,-344 124,-306 198,-268 272,-306 198,-344"/>
<text text-anchor="middle" x="198" y="-309.8" font-family="Calibri" font-size="14.00">iTunes</text>
<text text-anchor="middle" x="198" y="-294.8" font-family="Calibri" font-size="14.00">matched?</text>
</g>
<!-- itunes_store_matches -->
<g id="node9" class="node">
<title>itunes_store_matches</title>
<ellipse fill="yellow" stroke="black" cx="159" cy="-145" rx="118.08" ry="18"/>
<text text-anchor="middle" x="159" y="-141.3" font-family="Calibri" font-size="14.00">itunes&#45;store&#45;matches[&#45;lossy]</text>
</g>
<!-- itunes_matched&#45;&gt;itunes_store_matches -->
<g id="edge11" class="edge">
<title>itunes_matched&#45;&gt;itunes_store_matches</title>
<path fill="none" stroke="black" d="M189.82,-271.67C182.74,-242.79 172.61,-201.49 165.92,-174.22"/>
<polygon fill="black" stroke="black" points="169.34,-173.47 163.56,-164.59 162.54,-175.14 169.34,-173.47"/>
<text text-anchor="middle" x="195" y="-238.8" font-family="Calibri" font-size="14.00">yes</text>
</g>
<!-- add_to_icloud_library -->
<g id="node21" class="node">
<title>add_to_icloud_library</title>
<polygon fill="lightblue" stroke="black" points="352.5,-217 215.5,-217 215.5,-181 352.5,-181 352.5,-217"/>
<text text-anchor="middle" x="284" y="-195.3" font-family="Calibri" font-size="14.00">Add to iCloud Library</text>
</g>
<!-- itunes_matched&#45;&gt;add_to_icloud_library -->
<g id="edge12" class="edge">
<title>itunes_matched&#45;&gt;add_to_icloud_library</title>
<path fill="none" stroke="black" d="M219.48,-278.77C232.62,-262.73 249.38,-242.27 262.52,-226.23"/>
<polygon fill="black" stroke="black" points="265.2,-228.48 268.83,-218.53 259.78,-224.04 265.2,-228.48"/>
<text text-anchor="middle" x="262" y="-238.8" font-family="Calibri" font-size="14.00">no</text>
</g>
<!-- lossy_format -->
<g id="node7" class="node">
<title>lossy_format</title>
<polygon fill="lightgray" stroke="black" points="102,-1129 46,-1091 102,-1053 158,-1091 102,-1129"/>
<text text-anchor="middle" x="102" y="-1094.8" font-family="Calibri" font-size="14.00">Lossy</text>
<text text-anchor="middle" x="102" y="-1079.8" font-family="Calibri" font-size="14.00">format</text>
</g>
<!-- have_physical_media&#45;&gt;lossy_format -->
<g id="edge22" class="edge">
<title>have_physical_media&#45;&gt;lossy_format</title>
<path fill="none" stroke="black" d="M258.53,-1197.19C226.22,-1175.48 174.33,-1140.61 139.24,-1117.03"/>
<polygon fill="black" stroke="black" points="141.32,-1114.21 131.07,-1111.54 137.42,-1120.02 141.32,-1114.21"/>
<text text-anchor="middle" x="215" y="-1150.8" font-family="Calibri" font-size="14.00">no</text>
</g>
<!-- icloud_music_pending_rerip -->
<g id="node10" class="node">
<title>icloud_music_pending_rerip</title>
<ellipse fill="yellow" stroke="black" cx="288" cy="-1091" rx="112.38" ry="18"/>
<text text-anchor="middle" x="288" y="-1087.3" font-family="Calibri" font-size="14.00">icloud&#45;music&#45;pending&#45;rerip</text>
</g>
<!-- have_physical_media&#45;&gt;icloud_music_pending_rerip -->
<g id="edge19" class="edge">
<title>have_physical_media&#45;&gt;icloud_music_pending_rerip</title>
<path fill="none" stroke="black" d="M288,-1179.5C288,-1160.66 288,-1138.19 288,-1120.74"/>
<polygon fill="black" stroke="black" points="291.5,-1120.82 288,-1110.82 284.5,-1120.82 291.5,-1120.82"/>
<text text-anchor="middle" x="298" y="-1150.8" font-family="Calibri" font-size="14.00">yes</text>
</g>
<!-- supported_lossy_format -->
<g id="node14" class="node">
<title>supported_lossy_format</title>
<polygon fill="lightblue" stroke="black" points="120,-1002 0,-1002 0,-964 120,-964 120,-1002"/>
<text text-anchor="middle" x="60" y="-986.8" font-family="Calibri" font-size="14.00">Supported format</text>
<text text-anchor="middle" x="60" y="-971.8" font-family="Calibri" font-size="14.00">(aac, mp3)</text>
</g>
<!-- lossy_format&#45;&gt;supported_lossy_format -->
<g id="edge23" class="edge">
<title>lossy_format&#45;&gt;supported_lossy_format</title>
<path fill="none" stroke="black" d="M90.3,-1060.47C84.42,-1045.63 77.32,-1027.72 71.47,-1012.96"/>
<polygon fill="black" stroke="black" points="74.78,-1011.8 67.84,-1003.8 68.27,-1014.38 74.78,-1011.8"/>
</g>
<!-- unsupported_lossy_format -->
<g id="node15" class="node">
<title>unsupported_lossy_format</title>
<polygon fill="lightblue" stroke="black" points="274,-1002 138,-1002 138,-964 274,-964 274,-1002"/>
<text text-anchor="middle" x="206" y="-986.8" font-family="Calibri" font-size="14.00">Unsupported format</text>
<text text-anchor="middle" x="206" y="-971.8" font-family="Calibri" font-size="14.00">(wma, ogg)</text>
</g>
<!-- lossy_format&#45;&gt;unsupported_lossy_format -->
<g id="edge26" class="edge">
<title>lossy_format&#45;&gt;unsupported_lossy_format</title>
<path fill="none" stroke="black" d="M124.06,-1067.52C140.45,-1050.81 162.88,-1027.95 180.12,-1010.38"/>
<polygon fill="black" stroke="black" points="182.56,-1012.89 187.06,-1003.3 177.56,-1007.99 182.56,-1012.89"/>
</g>
<!-- remove_itunes_download -->
<g id="node22" class="node">
<title>remove_itunes_download</title>
<polygon fill="lightblue" stroke="black" points="247,-36 83,-36 83,0 247,0 247,-36"/>
<text text-anchor="middle" x="165" y="-14.3" font-family="Calibri" font-size="14.00">Remove iTunes download</text>
</g>
<!-- itunes_store_matches&#45;&gt;remove_itunes_download -->
<g id="edge15" class="edge">
<title>itunes_store_matches&#45;&gt;remove_itunes_download</title>
<path fill="none" stroke="black" d="M159.83,-126.62C160.81,-106.19 162.46,-71.99 163.63,-47.62"/>
<polygon fill="black" stroke="black" points="167.12,-47.9 164.1,-37.74 160.12,-47.57 167.12,-47.9"/>
</g>
<!-- rip_media -->
<g id="node13" class="node">
<title>rip_media</title>
<polygon fill="lightblue" stroke="black" points="338.5,-946 265.5,-946 265.5,-910 338.5,-910 338.5,-946"/>
<text text-anchor="middle" x="302" y="-924.3" font-family="Calibri" font-size="14.00">Rip media</text>
</g>
<!-- icloud_music_pending_rerip&#45;&gt;rip_media -->
<g id="edge20" class="edge">
<title>icloud_music_pending_rerip&#45;&gt;rip_media</title>
<path fill="none" stroke="black" d="M289.5,-1072.77C291.9,-1045.17 296.63,-990.77 299.53,-957.37"/>
<polygon fill="black" stroke="black" points="303,-957.88 300.38,-947.61 296.03,-957.27 303,-957.88"/>
</g>
<!-- convert_to_alac -->
<g id="node18" class="node">
<title>convert_to_alac</title>
<polygon fill="lightblue" stroke="black" points="253,-567 143,-567 143,-531 253,-531 253,-567"/>
<text text-anchor="middle" x="198" y="-545.3" font-family="Calibri" font-size="14.00">Convert to ALAC</text>
</g>
<!-- icloud_music_pending_tags&#45;&gt;convert_to_alac -->
<g id="edge7" class="edge">
<title>icloud_music_pending_tags&#45;&gt;convert_to_alac</title>
<path fill="none" stroke="black" d="M198,-655.64C198,-635.68 198,-602.6 198,-578.77"/>
<polygon fill="black" stroke="black" points="201.5,-578.79 198,-568.79 194.5,-578.79 201.5,-578.79"/>
</g>
<!-- icloud_music_uploads -->
<g id="node12" class="node">
<title>icloud_music_uploads</title>
<ellipse fill="yellow" stroke="black" cx="299" cy="-91" rx="118.08" ry="18"/>
<text text-anchor="middle" x="299" y="-87.3" font-family="Calibri" font-size="14.00">icloud&#45;music&#45;uploads[&#45;lossy]</text>
</g>
<!-- icloud_music_uploads&#45;&gt;remove_itunes_download -->
<g id="edge14" class="edge">
<title>icloud_music_uploads&#45;&gt;remove_itunes_download</title>
<path fill="none" stroke="black" d="M267.58,-73.35C249.75,-63.9 227.17,-51.94 207.74,-41.65"/>
<polygon fill="black" stroke="black" points="209.43,-38.58 198.96,-36.99 206.15,-44.77 209.43,-38.58"/>
</g>
<!-- rip_media&#45;&gt;is_vgmdb_available -->
<g id="edge21" class="edge">
<title>rip_media&#45;&gt;is_vgmdb_available</title>
<path fill="none" stroke="black" d="M302,-909.51C302,-890.07 302,-857.82 302,-830.62"/>
<polygon fill="black" stroke="black" points="305.5,-830.84 302,-820.84 298.5,-830.84 305.5,-830.84"/>
</g>
<!-- acquire_lossless -->
<g id="node16" class="node">
<title>acquire_lossless</title>
<polygon fill="lightblue" stroke="black" points="260,-892 152,-892 152,-856 260,-856 260,-892"/>
<text text-anchor="middle" x="206" y="-870.3" font-family="Calibri" font-size="14.00">Acquire lossless</text>
</g>
<!-- supported_lossy_format&#45;&gt;acquire_lossless -->
<g id="edge25" class="edge">
<title>supported_lossy_format&#45;&gt;acquire_lossless</title>
<path fill="none" stroke="black" d="M85.1,-963.61C109.46,-945.75 146.56,-918.56 173.23,-899.01"/>
<polygon fill="black" stroke="black" points="174.98,-902.07 180.98,-893.34 170.84,-896.43 174.98,-902.07"/>
</g>
<!-- copy_to_itunes_media -->
<g id="node20" class="node">
<title>copy_to_itunes_media</title>
<polygon fill="lightblue" stroke="black" points="263.5,-419 132.5,-419 132.5,-381 263.5,-381 263.5,-419"/>
<text text-anchor="middle" x="198" y="-403.8" font-family="Calibri" font-size="14.00">Copy to</text>
<text text-anchor="middle" x="198" y="-388.8" font-family="Calibri" font-size="14.00">iTunes Media folder</text>
</g>
<!-- supported_lossy_format&#45;&gt;copy_to_itunes_media -->
<g id="edge24" class="edge">
<title>supported_lossy_format&#45;&gt;copy_to_itunes_media</title>
<path fill="none" stroke="black" d="M60,-963.82C60,-942.54 60,-906.21 60,-875 60,-875 60,-875 60,-474 60,-441.86 89.62,-423.83 121.41,-413.74"/>
<polygon fill="black" stroke="black" points="122.14,-417.17 130.78,-411.03 120.2,-410.44 122.14,-417.17"/>
</g>
<!-- unsupported_lossy_format&#45;&gt;acquire_lossless -->
<g id="edge27" class="edge">
<title>unsupported_lossy_format&#45;&gt;acquire_lossless</title>
<path fill="none" stroke="black" d="M206,-963.85C206,-947.34 206,-922.69 206,-903.55"/>
<polygon fill="black" stroke="black" points="209.5,-903.69 206,-893.69 202.5,-903.69 209.5,-903.69"/>
</g>
<!-- acquire_lossless&#45;&gt;is_vgmdb_available -->
<g id="edge28" class="edge">
<title>acquire_lossless&#45;&gt;is_vgmdb_available</title>
<path fill="none" stroke="black" d="M224.06,-855.88C236.13,-844.44 252.42,-829 266.99,-815.19"/>
<polygon fill="black" stroke="black" points="269.37,-817.75 274.22,-808.34 264.55,-812.67 269.37,-817.75"/>
</g>
<!-- convert_flac_to_alac&#45;&gt;copy_to_itunes_media -->
<g id="edge17" class="edge">
<title>convert_flac_to_alac&#45;&gt;copy_to_itunes_media</title>
<path fill="none" stroke="black" d="M314.51,-584.54C304.48,-552.45 284.57,-497.06 256,-456 248.66,-445.45 239.03,-435.33 229.74,-426.71"/>
<polygon fill="black" stroke="black" points="232.3,-424.3 222.51,-420.26 227.64,-429.53 232.3,-424.3"/>
</g>
<!-- vgmdb_scripts -->
<g id="node19" class="node">
<title>vgmdb_scripts</title>
<polygon fill="lightblue" stroke="black" points="247,-494 149,-494 149,-456 247,-456 247,-494"/>
<text text-anchor="middle" x="198" y="-478.8" font-family="Calibri" font-size="14.00">Retag with</text>
<text text-anchor="middle" x="198" y="-463.8" font-family="Calibri" font-size="14.00">vgmdb scripts</text>
</g>
<!-- convert_to_alac&#45;&gt;vgmdb_scripts -->
<g id="edge8" class="edge">
<title>convert_to_alac&#45;&gt;vgmdb_scripts</title>
<path fill="none" stroke="black" d="M198,-530.57C198,-523.1 198,-514.17 198,-505.71"/>
<polygon fill="black" stroke="black" points="201.5,-505.79 198,-495.79 194.5,-505.79 201.5,-505.79"/>
</g>
<!-- vgmdb_scripts&#45;&gt;copy_to_itunes_media -->
<g id="edge9" class="edge">
<title>vgmdb_scripts&#45;&gt;copy_to_itunes_media</title>
<path fill="none" stroke="black" d="M198,-455.58C198,-448.06 198,-439.17 198,-430.77"/>
<polygon fill="black" stroke="black" points="201.5,-430.93 198,-420.93 194.5,-430.93 201.5,-430.93"/>
</g>
<!-- copy_to_itunes_media&#45;&gt;itunes_matched -->
<g id="edge10" class="edge">
<title>copy_to_itunes_media&#45;&gt;itunes_matched</title>
<path fill="none" stroke="black" d="M198,-380.82C198,-373.53 198,-364.75 198,-355.82"/>
<polygon fill="black" stroke="black" points="201.5,-356.06 198,-346.06 194.5,-356.06 201.5,-356.06"/>
</g>
<!-- add_to_icloud_library&#45;&gt;icloud_music_uploads -->
<g id="edge13" class="edge">
<title>add_to_icloud_library&#45;&gt;icloud_music_uploads</title>
<path fill="none" stroke="black" d="M286.41,-180.97C288.71,-164.69 292.23,-139.82 294.96,-120.52"/>
<polygon fill="black" stroke="black" points="298.4,-121.23 296.33,-110.84 291.47,-120.25 298.4,-121.23"/>
</g>
</g>
</svg>
