<?xml version="1.0" encoding="UTF-8" standalone="no"?>
<!DOCTYPE svg PUBLIC "-//W3C//DTD SVG 1.1//EN"
 "http://www.w3.org/Graphics/SVG/1.1/DTD/svg11.dtd">
<!-- Generated by graphviz version 7.1.0 (20230121.1956)
 -->
<!-- Pages: 1 -->
<svg width="931pt" height="1443pt"
 viewBox="0.00 0.00 931.29 1443.00" xmlns="http://www.w3.org/2000/svg" xmlns:xlink="http://www.w3.org/1999/xlink">
<g id="graph0" class="graph" transform="scale(1 1) rotate(0) translate(4 1439)">
<polygon fill="white" stroke="none" points="-4,4 -4,-1439 927.29,-1439 927.29,4 -4,4"/>
<!-- is_apple_music_available -->
<g id="node1" class="node">
<title>is_apple_music_available</title>
<polygon fill="lightgray" stroke="black" points="409,-1435 315,-1397 409,-1359 503,-1397 409,-1435"/>
<text text-anchor="middle" x="409" y="-1400.8" font-family="Calibri" font-size="14.00">Available in</text>
<text text-anchor="middle" x="409" y="-1385.8" font-family="Calibri" font-size="14.00">Apple Music?</text>
</g>
<!-- is_apple_music_complete -->
<g id="node2" class="node">
<title>is_apple_music_complete</title>
<polygon fill="lightgray" stroke="black" points="553,-1308 427,-1270 553,-1232 679,-1270 553,-1308"/>
<text text-anchor="middle" x="553" y="-1273.8" font-family="Calibri" font-size="14.00">Apple Music album</text>
<text text-anchor="middle" x="553" y="-1258.8" font-family="Calibri" font-size="14.00">is complete?</text>
</g>
<!-- is_apple_music_available&#45;&gt;is_apple_music_complete -->
<g id="edge1" class="edge">
<title>is_apple_music_available&#45;&gt;is_apple_music_complete</title>
<path fill="none" stroke="black" d="M438.49,-1370.4C459.89,-1351.83 489.09,-1326.48 512.65,-1306.03"/>
<polygon fill="black" stroke="black" points="514.65,-1308.92 519.91,-1299.73 510.06,-1303.64 514.65,-1308.92"/>
<text text-anchor="middle" x="500" y="-1329.8" font-family="Calibri" font-size="14.00">yes</text>
</g>
<!-- is_lossless -->
<g id="node3" class="node">
<title>is_lossless</title>
<polygon fill="lightgray" stroke="black" points="393,-1181 327.98,-1163 393,-1145 458.02,-1163 393,-1181"/>
<text text-anchor="middle" x="393" y="-1159.3" font-family="Calibri" font-size="14.00">Lossless?</text>
</g>
<!-- is_apple_music_available&#45;&gt;is_lossless -->
<g id="edge4" class="edge">
<title>is_apple_music_available&#45;&gt;is_lossless</title>
<path fill="none" stroke="black" d="M406,-1360.05C404.71,-1344.11 403.22,-1325.12 402,-1308 399.14,-1267.77 396.32,-1221.19 394.62,-1192.15"/>
<polygon fill="black" stroke="black" points="398.12,-1192.15 394.05,-1182.37 391.14,-1192.55 398.12,-1192.15"/>
<text text-anchor="middle" x="410" y="-1266.3" font-family="Calibri" font-size="14.00">no</text>
</g>
<!-- is_apple_music_complete&#45;&gt;is_lossless -->
<g id="edge3" class="edge">
<title>is_apple_music_complete&#45;&gt;is_lossless</title>
<path fill="none" stroke="black" d="M513.86,-1243.31C485.11,-1224.45 446.74,-1199.27 421.01,-1182.38"/>
<polygon fill="black" stroke="black" points="423.04,-1179.53 412.76,-1176.96 419.2,-1185.38 423.04,-1179.53"/>
<text text-anchor="middle" x="477" y="-1202.8" font-family="Calibri" font-size="14.00">no</text>
</g>
<!-- apple_music_matches -->
<g id="node8" class="node">
<title>apple_music_matches</title>
<ellipse fill="yellow" stroke="black" cx="595" cy="-1163" rx="118.08" ry="18"/>
<text text-anchor="middle" x="595" y="-1159.3" font-family="Calibri" font-size="14.00">apple&#45;music&#45;matches[&#45;lossy]</text>
</g>
<!-- is_apple_music_complete&#45;&gt;apple_music_matches -->
<g id="edge2" class="edge">
<title>is_apple_music_complete&#45;&gt;apple_music_matches</title>
<path fill="none" stroke="black" d="M566.29,-1235.78C571.92,-1221.7 578.41,-1205.47 583.8,-1192"/>
<polygon fill="black" stroke="black" points="586.99,-1193.45 587.46,-1182.86 580.49,-1190.85 586.99,-1193.45"/>
<text text-anchor="middle" x="590" y="-1202.8" font-family="Calibri" font-size="14.00">yes</text>
</g>
<!-- is_vgmdb_available -->
<g id="node4" class="node">
<title>is_vgmdb_available</title>
<polygon fill="lightgray" stroke="black" points="302,-657 216,-619 302,-581 388,-619 302,-657"/>
<text text-anchor="middle" x="302" y="-622.8" font-family="Calibri" font-size="14.00">Available on</text>
<text text-anchor="middle" x="302" y="-607.8" font-family="Calibri" font-size="14.00">vgmdb.net?</text>
</g>
<!-- is_lossless&#45;&gt;is_vgmdb_available -->
<g id="edge5" class="edge">
<title>is_lossless&#45;&gt;is_vgmdb_available</title>
<path fill="none" stroke="black" d="M401.47,-1146.87C411.83,-1126.93 428,-1090.43 428,-1057 428,-1057 428,-1057 428,-711 428,-675.94 395.54,-653.03 363.57,-638.96"/>
<polygon fill="black" stroke="black" points="365.23,-635.86 354.65,-635.28 362.56,-642.33 365.23,-635.86"/>
<text text-anchor="middle" x="438" y="-861.8" font-family="Calibri" font-size="14.00">yes</text>
</g>
<!-- have_physical_media -->
<g id="node6" class="node">
<title>have_physical_media</title>
<polygon fill="lightgray" stroke="black" points="288,-1094 225,-1056 288,-1018 351,-1056 288,-1094"/>
<text text-anchor="middle" x="288" y="-1059.8" font-family="Calibri" font-size="14.00">Physical</text>
<text text-anchor="middle" x="288" y="-1044.8" font-family="Calibri" font-size="14.00">media?</text>
</g>
<!-- is_lossless&#45;&gt;have_physical_media -->
<g id="edge15" class="edge">
<title>is_lossless&#45;&gt;have_physical_media</title>
<path fill="none" stroke="black" d="M379.7,-1148.7C364.57,-1133.57 339.34,-1108.34 319.17,-1088.17"/>
<polygon fill="black" stroke="black" points="321.78,-1085.83 312.23,-1081.23 316.83,-1090.78 321.78,-1085.83"/>
<text text-anchor="middle" x="365" y="-1115.8" font-family="Calibri" font-size="14.00">no</text>
</g>
<!-- icloud_music_pending_tags -->
<g id="node11" class="node">
<title>icloud_music_pending_tags</title>
<ellipse fill="yellow" stroke="black" cx="198" cy="-512" rx="109.68" ry="18"/>
<text text-anchor="middle" x="198" y="-508.3" font-family="Calibri" font-size="14.00">icloud&#45;music&#45;pending&#45;tags</text>
</g>
<!-- is_vgmdb_available&#45;&gt;icloud_music_pending_tags -->
<g id="edge6" class="edge">
<title>is_vgmdb_available&#45;&gt;icloud_music_pending_tags</title>
<path fill="none" stroke="black" d="M276.29,-592.04C260,-575.6 239.04,-554.44 222.91,-538.15"/>
<polygon fill="black" stroke="black" points="225.55,-535.84 216.03,-531.2 220.58,-540.77 225.55,-535.84"/>
<text text-anchor="middle" x="257" y="-551.8" font-family="Calibri" font-size="14.00">yes</text>
</g>
<!-- convert_flac_to_alac -->
<g id="node17" class="node">
<title>convert_flac_to_alac</title>
<polygon fill="lightblue" stroke="black" points="382.5,-476 261.5,-476 261.5,-423 382.5,-423 382.5,-476"/>
<text text-anchor="middle" x="322" y="-460.8" font-family="Calibri" font-size="14.00">Convert FLAC</text>
<text text-anchor="middle" x="322" y="-445.8" font-family="Calibri" font-size="14.00">or WAV to ALAC</text>
<text text-anchor="middle" x="322" y="-430.8" font-family="Calibri" font-size="14.00">(leave WMA as&#45;is)</text>
</g>
<!-- is_vgmdb_available&#45;&gt;convert_flac_to_alac -->
<g id="edge13" class="edge">
<title>is_vgmdb_available&#45;&gt;convert_flac_to_alac</title>
<path fill="none" stroke="black" d="M308.69,-583.85C311.65,-567.6 314.92,-547.86 317,-530 318.61,-516.19 319.72,-500.96 320.49,-487.56"/>
<polygon fill="black" stroke="black" points="323.97,-488.02 320.99,-477.85 316.98,-487.66 323.97,-488.02"/>
<text text-anchor="middle" x="323" y="-551.8" font-family="Calibri" font-size="14.00">no</text>
</g>
<!-- itunes_matched -->
<g id="node5" class="node">
<title>itunes_matched</title>
<polygon fill="lightgray" stroke="black" points="595,-1435 521,-1397 595,-1359 669,-1397 595,-1435"/>
<text text-anchor="middle" x="595" y="-1400.8" font-family="Calibri" font-size="14.00">iTunes</text>
<text text-anchor="middle" x="595" y="-1385.8" font-family="Calibri" font-size="14.00">matched?</text>
</g>
<!-- lossy_format -->
<g id="node7" class="node">
<title>lossy_format</title>
<polygon fill="lightgray" stroke="black" points="102,-967 46,-929 102,-891 158,-929 102,-967"/>
<text text-anchor="middle" x="102" y="-932.8" font-family="Calibri" font-size="14.00">Lossy</text>
<text text-anchor="middle" x="102" y="-917.8" font-family="Calibri" font-size="14.00">format</text>
</g>
<!-- have_physical_media&#45;&gt;lossy_format -->
<g id="edge19" class="edge">
<title>have_physical_media&#45;&gt;lossy_format</title>
<path fill="none" stroke="black" d="M258.53,-1035.19C226.22,-1013.48 174.33,-978.61 139.24,-955.03"/>
<polygon fill="black" stroke="black" points="141.32,-952.21 131.07,-949.54 137.42,-958.02 141.32,-952.21"/>
<text text-anchor="middle" x="215" y="-988.8" font-family="Calibri" font-size="14.00">no</text>
</g>
<!-- icloud_music_pending_rerip -->
<g id="node10" class="node">
<title>icloud_music_pending_rerip</title>
<ellipse fill="yellow" stroke="black" cx="288" cy="-929" rx="112.38" ry="18"/>
<text text-anchor="middle" x="288" y="-925.3" font-family="Calibri" font-size="14.00">icloud&#45;music&#45;pending&#45;rerip</text>
</g>
<!-- have_physical_media&#45;&gt;icloud_music_pending_rerip -->
<g id="edge16" class="edge">
<title>have_physical_media&#45;&gt;icloud_music_pending_rerip</title>
<path fill="none" stroke="black" d="M288,-1017.5C288,-998.66 288,-976.19 288,-958.74"/>
<polygon fill="black" stroke="black" points="291.5,-958.82 288,-948.82 284.5,-958.82 291.5,-958.82"/>
<text text-anchor="middle" x="298" y="-988.8" font-family="Calibri" font-size="14.00">yes</text>
</g>
<!-- supported_lossy_format -->
<g id="node14" class="node">
<title>supported_lossy_format</title>
<polygon fill="lightblue" stroke="black" points="120,-840 0,-840 0,-802 120,-802 120,-840"/>
<text text-anchor="middle" x="60" y="-824.8" font-family="Calibri" font-size="14.00">Supported format</text>
<text text-anchor="middle" x="60" y="-809.8" font-family="Calibri" font-size="14.00">(aac, mp3)</text>
</g>
<!-- lossy_format&#45;&gt;supported_lossy_format -->
<g id="edge20" class="edge">
<title>lossy_format&#45;&gt;supported_lossy_format</title>
<path fill="none" stroke="black" d="M90.3,-898.47C84.42,-883.63 77.32,-865.72 71.47,-850.96"/>
<polygon fill="black" stroke="black" points="74.78,-849.8 67.84,-841.8 68.27,-852.38 74.78,-849.8"/>
</g>
<!-- unsupported_lossy_format -->
<g id="node15" class="node">
<title>unsupported_lossy_format</title>
<polygon fill="lightblue" stroke="black" points="274,-840 138,-840 138,-802 274,-802 274,-840"/>
<text text-anchor="middle" x="206" y="-824.8" font-family="Calibri" font-size="14.00">Unsupported format</text>
<text text-anchor="middle" x="206" y="-809.8" font-family="Calibri" font-size="14.00">(wma, ogg)</text>
</g>
<!-- lossy_format&#45;&gt;unsupported_lossy_format -->
<g id="edge23" class="edge">
<title>lossy_format&#45;&gt;unsupported_lossy_format</title>
<path fill="none" stroke="black" d="M124.06,-905.52C140.45,-888.81 162.88,-865.95 180.12,-848.38"/>
<polygon fill="black" stroke="black" points="182.56,-850.89 187.06,-841.3 177.56,-845.99 182.56,-850.89"/>
</g>
<!-- itunes_store_matches -->
<g id="node9" class="node">
<title>itunes_store_matches</title>
<ellipse fill="yellow" stroke="black" cx="805" cy="-1397" rx="118.08" ry="18"/>
<text text-anchor="middle" x="805" y="-1393.3" font-family="Calibri" font-size="14.00">itunes&#45;store&#45;matches[&#45;lossy]</text>
</g>
<!-- rip_media -->
<g id="node13" class="node">
<title>rip_media</title>
<polygon fill="lightblue" stroke="black" points="338.5,-784 265.5,-784 265.5,-748 338.5,-748 338.5,-784"/>
<text text-anchor="middle" x="302" y="-762.3" font-family="Calibri" font-size="14.00">Rip media</text>
</g>
<!-- icloud_music_pending_rerip&#45;&gt;rip_media -->
<g id="edge17" class="edge">
<title>icloud_music_pending_rerip&#45;&gt;rip_media</title>
<path fill="none" stroke="black" d="M289.5,-910.77C291.9,-883.17 296.63,-828.77 299.53,-795.37"/>
<polygon fill="black" stroke="black" points="303,-795.88 300.38,-785.61 296.03,-795.27 303,-795.88"/>
</g>
<!-- convert_to_alac -->
<g id="node18" class="node">
<title>convert_to_alac</title>
<polygon fill="lightblue" stroke="black" points="253,-405 143,-405 143,-369 253,-369 253,-405"/>
<text text-anchor="middle" x="198" y="-383.3" font-family="Calibri" font-size="14.00">Convert to ALAC</text>
</g>
<!-- icloud_music_pending_tags&#45;&gt;convert_to_alac -->
<g id="edge7" class="edge">
<title>icloud_music_pending_tags&#45;&gt;convert_to_alac</title>
<path fill="none" stroke="black" d="M198,-493.64C198,-473.68 198,-440.6 198,-416.77"/>
<polygon fill="black" stroke="black" points="201.5,-416.79 198,-406.79 194.5,-416.79 201.5,-416.79"/>
</g>
<!-- icloud_music_uploads -->
<g id="node12" class="node">
<title>icloud_music_uploads</title>
<ellipse fill="yellow" stroke="black" cx="198" cy="-91" rx="118.08" ry="18"/>
<text text-anchor="middle" x="198" y="-87.3" font-family="Calibri" font-size="14.00">icloud&#45;music&#45;uploads[&#45;lossy]</text>
</g>
<!-- remove_itunes_download -->
<g id="node22" class="node">
<title>remove_itunes_download</title>
<polygon fill="lightblue" stroke="black" points="280,-36 116,-36 116,0 280,0 280,-36"/>
<text text-anchor="middle" x="198" y="-14.3" font-family="Calibri" font-size="14.00">Remove iTunes download</text>
</g>
<!-- icloud_music_uploads&#45;&gt;remove_itunes_download -->
<g id="edge12" class="edge">
<title>icloud_music_uploads&#45;&gt;remove_itunes_download</title>
<path fill="none" stroke="black" d="M198,-72.81C198,-65.23 198,-56.1 198,-47.54"/>
<polygon fill="black" stroke="black" points="201.5,-47.54 198,-37.54 194.5,-47.54 201.5,-47.54"/>
</g>
<!-- rip_media&#45;&gt;is_vgmdb_available -->
<g id="edge18" class="edge">
<title>rip_media&#45;&gt;is_vgmdb_available</title>
<path fill="none" stroke="black" d="M302,-747.51C302,-728.07 302,-695.82 302,-668.62"/>
<polygon fill="black" stroke="black" points="305.5,-668.84 302,-658.84 298.5,-668.84 305.5,-668.84"/>
</g>
<!-- acquire_lossless -->
<g id="node16" class="node">
<title>acquire_lossless</title>
<polygon fill="lightblue" stroke="black" points="260,-730 152,-730 152,-694 260,-694 260,-730"/>
<text text-anchor="middle" x="206" y="-708.3" font-family="Calibri" font-size="14.00">Acquire lossless</text>
</g>
<!-- supported_lossy_format&#45;&gt;acquire_lossless -->
<g id="edge22" class="edge">
<title>supported_lossy_format&#45;&gt;acquire_lossless</title>
<path fill="none" stroke="black" d="M85.1,-801.61C109.46,-783.75 146.56,-756.56 173.23,-737.01"/>
<polygon fill="black" stroke="black" points="174.98,-740.07 180.98,-731.34 170.84,-734.43 174.98,-740.07"/>
</g>
<!-- copy_to_itunes_media -->
<g id="node20" class="node">
<title>copy_to_itunes_media</title>
<polygon fill="lightblue" stroke="black" points="263.5,-257 132.5,-257 132.5,-219 263.5,-219 263.5,-257"/>
<text text-anchor="middle" x="198" y="-241.8" font-family="Calibri" font-size="14.00">Copy to</text>
<text text-anchor="middle" x="198" y="-226.8" font-family="Calibri" font-size="14.00">iTunes Media folder</text>
</g>
<!-- supported_lossy_format&#45;&gt;copy_to_itunes_media -->
<g id="edge21" class="edge">
<title>supported_lossy_format&#45;&gt;copy_to_itunes_media</title>
<path fill="none" stroke="black" d="M60,-801.82C60,-780.54 60,-744.21 60,-713 60,-713 60,-713 60,-312 60,-279.86 89.62,-261.83 121.41,-251.74"/>
<polygon fill="black" stroke="black" points="122.14,-255.17 130.78,-249.03 120.2,-248.44 122.14,-255.17"/>
</g>
<!-- unsupported_lossy_format&#45;&gt;acquire_lossless -->
<g id="edge24" class="edge">
<title>unsupported_lossy_format&#45;&gt;acquire_lossless</title>
<path fill="none" stroke="black" d="M206,-801.85C206,-785.34 206,-760.69 206,-741.55"/>
<polygon fill="black" stroke="black" points="209.5,-741.69 206,-731.69 202.5,-741.69 209.5,-741.69"/>
</g>
<!-- acquire_lossless&#45;&gt;is_vgmdb_available -->
<g id="edge25" class="edge">
<title>acquire_lossless&#45;&gt;is_vgmdb_available</title>
<path fill="none" stroke="black" d="M224.06,-693.88C236.13,-682.44 252.42,-667 266.99,-653.19"/>
<polygon fill="black" stroke="black" points="269.37,-655.75 274.22,-646.34 264.55,-650.67 269.37,-655.75"/>
</g>
<!-- convert_flac_to_alac&#45;&gt;copy_to_itunes_media -->
<g id="edge14" class="edge">
<title>convert_flac_to_alac&#45;&gt;copy_to_itunes_media</title>
<path fill="none" stroke="black" d="M314.51,-422.54C304.48,-390.45 284.57,-335.06 256,-294 248.66,-283.45 239.03,-273.33 229.74,-264.71"/>
<polygon fill="black" stroke="black" points="232.3,-262.3 222.51,-258.26 227.64,-267.53 232.3,-262.3"/>
</g>
<!-- vgmdb_scripts -->
<g id="node19" class="node">
<title>vgmdb_scripts</title>
<polygon fill="lightblue" stroke="black" points="247,-332 149,-332 149,-294 247,-294 247,-332"/>
<text text-anchor="middle" x="198" y="-316.8" font-family="Calibri" font-size="14.00">Retag with</text>
<text text-anchor="middle" x="198" y="-301.8" font-family="Calibri" font-size="14.00">vgmdb scripts</text>
</g>
<!-- convert_to_alac&#45;&gt;vgmdb_scripts -->
<g id="edge8" class="edge">
<title>convert_to_alac&#45;&gt;vgmdb_scripts</title>
<path fill="none" stroke="black" d="M198,-368.57C198,-361.1 198,-352.17 198,-343.71"/>
<polygon fill="black" stroke="black" points="201.5,-343.79 198,-333.79 194.5,-343.79 201.5,-343.79"/>
</g>
<!-- vgmdb_scripts&#45;&gt;copy_to_itunes_media -->
<g id="edge9" class="edge">
<title>vgmdb_scripts&#45;&gt;copy_to_itunes_media</title>
<path fill="none" stroke="black" d="M198,-293.58C198,-286.06 198,-277.17 198,-268.77"/>
<polygon fill="black" stroke="black" points="201.5,-268.93 198,-258.93 194.5,-268.93 201.5,-268.93"/>
</g>
<!-- add_to_icloud_library -->
<g id="node21" class="node">
<title>add_to_icloud_library</title>
<polygon fill="lightblue" stroke="black" points="266.5,-182 129.5,-182 129.5,-146 266.5,-146 266.5,-182"/>
<text text-anchor="middle" x="198" y="-160.3" font-family="Calibri" font-size="14.00">Add to iCloud Library</text>
</g>
<!-- copy_to_itunes_media&#45;&gt;add_to_icloud_library -->
<g id="edge10" class="edge">
<title>copy_to_itunes_media&#45;&gt;add_to_icloud_library</title>
<path fill="none" stroke="black" d="M198,-218.83C198,-211.24 198,-202.24 198,-193.79"/>
<polygon fill="black" stroke="black" points="201.5,-193.93 198,-183.93 194.5,-193.93 201.5,-193.93"/>
</g>
<!-- add_to_icloud_library&#45;&gt;icloud_music_uploads -->
<g id="edge11" class="edge">
<title>add_to_icloud_library&#45;&gt;icloud_music_uploads</title>
<path fill="none" stroke="black" d="M198,-145.81C198,-138.23 198,-129.1 198,-120.54"/>
<polygon fill="black" stroke="black" points="201.5,-120.54 198,-110.54 194.5,-120.54 201.5,-120.54"/>
</g>
</g>
</svg>
