<?xml version="1.0" encoding="UTF-8" standalone="no"?>
<!DOCTYPE svg PUBLIC "-//W3C//DTD SVG 1.1//EN"
 "http://www.w3.org/Graphics/SVG/1.1/DTD/svg11.dtd">
<!-- Generated by graphviz version 7.1.0 (20230121.1956)
 -->
<!-- Pages: 1 -->
<svg width="931pt" height="1445pt"
 viewBox="0.00 0.00 931.29 1445.00" xmlns="http://www.w3.org/2000/svg" xmlns:xlink="http://www.w3.org/1999/xlink">
<g id="graph0" class="graph" transform="scale(1 1) rotate(0) translate(4 1441)">
<polygon fill="white" stroke="none" points="-4,4 -4,-1441 927.29,-1441 927.29,4 -4,4"/>
<!-- is_apple_music_available -->
<g id="node1" class="node">
<title>is_apple_music_available</title>
<polygon fill="lightgray" stroke="black" points="409,-1437 315,-1399 409,-1361 503,-1399 409,-1437"/>
<text text-anchor="middle" x="409" y="-1402.8" font-family="Calibri" font-size="14.00">Available in</text>
<text text-anchor="middle" x="409" y="-1387.8" font-family="Calibri" font-size="14.00">Apple Music?</text>
</g>
<!-- is_apple_music_complete -->
<g id="node2" class="node">
<title>is_apple_music_complete</title>
<polygon fill="lightgray" stroke="black" points="553,-1310 427,-1272 553,-1234 679,-1272 553,-1310"/>
<text text-anchor="middle" x="553" y="-1275.8" font-family="Calibri" font-size="14.00">Apple Music album</text>
<text text-anchor="middle" x="553" y="-1260.8" font-family="Calibri" font-size="14.00">is complete?</text>
</g>
<!-- is_apple_music_available&#45;&gt;is_apple_music_complete -->
<g id="edge1" class="edge">
<title>is_apple_music_available&#45;&gt;is_apple_music_complete</title>
<path fill="none" stroke="black" d="M438.49,-1372.4C459.89,-1353.83 489.09,-1328.48 512.65,-1308.03"/>
<polygon fill="black" stroke="black" points="514.65,-1310.92 519.91,-1301.73 510.06,-1305.64 514.65,-1310.92"/>
<text text-anchor="middle" x="500" y="-1331.8" font-family="Calibri" font-size="14.00">yes</text>
</g>
<!-- is_lossless -->
<g id="node3" class="node">
<title>is_lossless</title>
<polygon fill="lightgray" stroke="black" points="393,-1183 327.98,-1165 393,-1147 458.02,-1165 393,-1183"/>
<text text-anchor="middle" x="393" y="-1161.3" font-family="Calibri" font-size="14.00">Lossless?</text>
</g>
<!-- is_apple_music_available&#45;&gt;is_lossless -->
<g id="edge4" class="edge">
<title>is_apple_music_available&#45;&gt;is_lossless</title>
<path fill="none" stroke="black" d="M406,-1362.05C404.71,-1346.11 403.22,-1327.12 402,-1310 399.14,-1269.77 396.32,-1223.19 394.62,-1194.15"/>
<polygon fill="black" stroke="black" points="398.12,-1194.15 394.05,-1184.37 391.14,-1194.55 398.12,-1194.15"/>
<text text-anchor="middle" x="410" y="-1268.3" font-family="Calibri" font-size="14.00">no</text>
</g>
<!-- is_apple_music_complete&#45;&gt;is_lossless -->
<g id="edge3" class="edge">
<title>is_apple_music_complete&#45;&gt;is_lossless</title>
<path fill="none" stroke="black" d="M513.86,-1245.31C485.11,-1226.45 446.74,-1201.27 421.01,-1184.38"/>
<polygon fill="black" stroke="black" points="423.04,-1181.53 412.76,-1178.96 419.2,-1187.38 423.04,-1181.53"/>
<text text-anchor="middle" x="477" y="-1204.8" font-family="Calibri" font-size="14.00">no</text>
</g>
<!-- apple_music_matches -->
<g id="node8" class="node">
<title>apple_music_matches</title>
<ellipse fill="yellow" stroke="black" cx="595" cy="-1165" rx="118.08" ry="18"/>
<text text-anchor="middle" x="595" y="-1161.3" font-family="Calibri" font-size="14.00">apple&#45;music&#45;matches[&#45;lossy]</text>
</g>
<!-- is_apple_music_complete&#45;&gt;apple_music_matches -->
<g id="edge2" class="edge">
<title>is_apple_music_complete&#45;&gt;apple_music_matches</title>
<path fill="none" stroke="black" d="M566.29,-1237.78C571.92,-1223.7 578.41,-1207.47 583.8,-1194"/>
<polygon fill="black" stroke="black" points="586.99,-1195.45 587.46,-1184.86 580.49,-1192.85 586.99,-1195.45"/>
<text text-anchor="middle" x="590" y="-1204.8" font-family="Calibri" font-size="14.00">yes</text>
</g>
<!-- is_vgmdb_available -->
<g id="node4" class="node">
<title>is_vgmdb_available</title>
<polygon fill="lightgray" stroke="black" points="302,-659 216,-621 302,-583 388,-621 302,-659"/>
<text text-anchor="middle" x="302" y="-624.8" font-family="Calibri" font-size="14.00">Available on</text>
<text text-anchor="middle" x="302" y="-609.8" font-family="Calibri" font-size="14.00">vgmdb.net?</text>
</g>
<!-- is_lossless&#45;&gt;is_vgmdb_available -->
<g id="edge5" class="edge">
<title>is_lossless&#45;&gt;is_vgmdb_available</title>
<path fill="none" stroke="black" d="M401.47,-1148.87C411.83,-1128.93 428,-1092.43 428,-1059 428,-1059 428,-1059 428,-713 428,-677.94 395.54,-655.03 363.57,-640.96"/>
<polygon fill="black" stroke="black" points="365.23,-637.86 354.65,-637.28 362.56,-644.33 365.23,-637.86"/>
<text text-anchor="middle" x="438" y="-863.8" font-family="Calibri" font-size="14.00">yes</text>
</g>
<!-- have_physical_media -->
<g id="node6" class="node">
<title>have_physical_media</title>
<polygon fill="lightgray" stroke="black" points="288,-1096 225,-1058 288,-1020 351,-1058 288,-1096"/>
<text text-anchor="middle" x="288" y="-1061.8" font-family="Calibri" font-size="14.00">Physical</text>
<text text-anchor="middle" x="288" y="-1046.8" font-family="Calibri" font-size="14.00">media?</text>
</g>
<!-- is_lossless&#45;&gt;have_physical_media -->
<g id="edge15" class="edge">
<title>is_lossless&#45;&gt;have_physical_media</title>
<path fill="none" stroke="black" d="M379.7,-1150.7C364.57,-1135.57 339.34,-1110.34 319.17,-1090.17"/>
<polygon fill="black" stroke="black" points="321.78,-1087.83 312.23,-1083.23 316.83,-1092.78 321.78,-1087.83"/>
<text text-anchor="middle" x="365" y="-1117.8" font-family="Calibri" font-size="14.00">no</text>
</g>
<!-- icloud_music_pending_tags -->
<g id="node11" class="node">
<title>icloud_music_pending_tags</title>
<ellipse fill="yellow" stroke="black" cx="198" cy="-514" rx="109.68" ry="18"/>
<text text-anchor="middle" x="198" y="-510.3" font-family="Calibri" font-size="14.00">icloud&#45;music&#45;pending&#45;tags</text>
</g>
<!-- is_vgmdb_available&#45;&gt;icloud_music_pending_tags -->
<g id="edge6" class="edge">
<title>is_vgmdb_available&#45;&gt;icloud_music_pending_tags</title>
<path fill="none" stroke="black" d="M276.29,-594.04C260,-577.6 239.04,-556.44 222.91,-540.15"/>
<polygon fill="black" stroke="black" points="225.55,-537.84 216.03,-533.2 220.58,-542.77 225.55,-537.84"/>
<text text-anchor="middle" x="257" y="-553.8" font-family="Calibri" font-size="14.00">yes</text>
</g>
<!-- convert_flac_to_alac -->
<g id="node17" class="node">
<title>convert_flac_to_alac</title>
<polygon fill="lightblue" stroke="black" points="382.5,-478 261.5,-478 261.5,-425 382.5,-425 382.5,-478"/>
<text text-anchor="middle" x="322" y="-462.8" font-family="Calibri" font-size="14.00">Convert FLAC</text>
<text text-anchor="middle" x="322" y="-447.8" font-family="Calibri" font-size="14.00">or WAV to ALAC</text>
<text text-anchor="middle" x="322" y="-432.8" font-family="Calibri" font-size="14.00">(leave WMA as&#45;is)</text>
</g>
<!-- is_vgmdb_available&#45;&gt;convert_flac_to_alac -->
<g id="edge13" class="edge">
<title>is_vgmdb_available&#45;&gt;convert_flac_to_alac</title>
<path fill="none" stroke="black" d="M308.69,-585.85C311.65,-569.6 314.92,-549.86 317,-532 318.61,-518.19 319.72,-502.96 320.49,-489.56"/>
<polygon fill="black" stroke="black" points="323.97,-490.02 320.99,-479.85 316.98,-489.66 323.97,-490.02"/>
<text text-anchor="middle" x="323" y="-553.8" font-family="Calibri" font-size="14.00">no</text>
</g>
<!-- itunes_matched -->
<g id="node5" class="node">
<title>itunes_matched</title>
<polygon fill="lightgray" stroke="black" points="595,-1437 521,-1399 595,-1361 669,-1399 595,-1437"/>
<text text-anchor="middle" x="595" y="-1402.8" font-family="Calibri" font-size="14.00">iTunes</text>
<text text-anchor="middle" x="595" y="-1387.8" font-family="Calibri" font-size="14.00">matched?</text>
</g>
<!-- lossy_format -->
<g id="node7" class="node">
<title>lossy_format</title>
<polygon fill="lightgray" stroke="black" points="102,-969 46,-931 102,-893 158,-931 102,-969"/>
<text text-anchor="middle" x="102" y="-934.8" font-family="Calibri" font-size="14.00">Lossy</text>
<text text-anchor="middle" x="102" y="-919.8" font-family="Calibri" font-size="14.00">format</text>
</g>
<!-- have_physical_media&#45;&gt;lossy_format -->
<g id="edge19" class="edge">
<title>have_physical_media&#45;&gt;lossy_format</title>
<path fill="none" stroke="black" d="M258.53,-1037.19C226.22,-1015.48 174.33,-980.61 139.24,-957.03"/>
<polygon fill="black" stroke="black" points="141.32,-954.21 131.07,-951.54 137.42,-960.02 141.32,-954.21"/>
<text text-anchor="middle" x="215" y="-990.8" font-family="Calibri" font-size="14.00">no</text>
</g>
<!-- icloud_music_pending_rerip -->
<g id="node10" class="node">
<title>icloud_music_pending_rerip</title>
<ellipse fill="yellow" stroke="black" cx="288" cy="-931" rx="112.38" ry="18"/>
<text text-anchor="middle" x="288" y="-927.3" font-family="Calibri" font-size="14.00">icloud&#45;music&#45;pending&#45;rerip</text>
</g>
<!-- have_physical_media&#45;&gt;icloud_music_pending_rerip -->
<g id="edge16" class="edge">
<title>have_physical_media&#45;&gt;icloud_music_pending_rerip</title>
<path fill="none" stroke="black" d="M288,-1019.5C288,-1000.66 288,-978.19 288,-960.74"/>
<polygon fill="black" stroke="black" points="291.5,-960.82 288,-950.82 284.5,-960.82 291.5,-960.82"/>
<text text-anchor="middle" x="298" y="-990.8" font-family="Calibri" font-size="14.00">yes</text>
</g>
<!-- supported_lossy_format -->
<g id="node14" class="node">
<title>supported_lossy_format</title>
<polygon fill="lightblue" stroke="black" points="120,-842 0,-842 0,-804 120,-804 120,-842"/>
<text text-anchor="middle" x="60" y="-826.8" font-family="Calibri" font-size="14.00">Supported format</text>
<text text-anchor="middle" x="60" y="-811.8" font-family="Calibri" font-size="14.00">(aac, mp3)</text>
</g>
<!-- lossy_format&#45;&gt;supported_lossy_format -->
<g id="edge20" class="edge">
<title>lossy_format&#45;&gt;supported_lossy_format</title>
<path fill="none" stroke="black" d="M90.3,-900.47C84.42,-885.63 77.32,-867.72 71.47,-852.96"/>
<polygon fill="black" stroke="black" points="74.78,-851.8 67.84,-843.8 68.27,-854.38 74.78,-851.8"/>
</g>
<!-- unsupported_lossy_format -->
<g id="node15" class="node">
<title>unsupported_lossy_format</title>
<polygon fill="lightblue" stroke="black" points="274,-842 138,-842 138,-804 274,-804 274,-842"/>
<text text-anchor="middle" x="206" y="-826.8" font-family="Calibri" font-size="14.00">Unsupported format</text>
<text text-anchor="middle" x="206" y="-811.8" font-family="Calibri" font-size="14.00">(wma, ogg)</text>
</g>
<!-- lossy_format&#45;&gt;unsupported_lossy_format -->
<g id="edge23" class="edge">
<title>lossy_format&#45;&gt;unsupported_lossy_format</title>
<path fill="none" stroke="black" d="M124.06,-907.52C140.45,-890.81 162.88,-867.95 180.12,-850.38"/>
<polygon fill="black" stroke="black" points="182.56,-852.89 187.06,-843.3 177.56,-847.99 182.56,-852.89"/>
</g>
<!-- itunes_store_matches -->
<g id="node9" class="node">
<title>itunes_store_matches</title>
<ellipse fill="yellow" stroke="black" cx="805" cy="-1399" rx="118.08" ry="18"/>
<text text-anchor="middle" x="805" y="-1395.3" font-family="Calibri" font-size="14.00">itunes&#45;store&#45;matches[&#45;lossy]</text>
</g>
<!-- rip_media -->
<g id="node13" class="node">
<title>rip_media</title>
<polygon fill="lightblue" stroke="black" points="338.5,-786 265.5,-786 265.5,-750 338.5,-750 338.5,-786"/>
<text text-anchor="middle" x="302" y="-764.3" font-family="Calibri" font-size="14.00">Rip media</text>
</g>
<!-- icloud_music_pending_rerip&#45;&gt;rip_media -->
<g id="edge17" class="edge">
<title>icloud_music_pending_rerip&#45;&gt;rip_media</title>
<path fill="none" stroke="black" d="M289.5,-912.77C291.9,-885.17 296.63,-830.77 299.53,-797.37"/>
<polygon fill="black" stroke="black" points="303,-797.88 300.38,-787.61 296.03,-797.27 303,-797.88"/>
</g>
<!-- convert_to_alac -->
<g id="node18" class="node">
<title>convert_to_alac</title>
<polygon fill="lightblue" stroke="black" points="253,-407 143,-407 143,-371 253,-371 253,-407"/>
<text text-anchor="middle" x="198" y="-385.3" font-family="Calibri" font-size="14.00">Convert to ALAC</text>
</g>
<!-- icloud_music_pending_tags&#45;&gt;convert_to_alac -->
<g id="edge7" class="edge">
<title>icloud_music_pending_tags&#45;&gt;convert_to_alac</title>
<path fill="none" stroke="black" d="M198,-495.64C198,-475.68 198,-442.6 198,-418.77"/>
<polygon fill="black" stroke="black" points="201.5,-418.79 198,-408.79 194.5,-418.79 201.5,-418.79"/>
</g>
<!-- icloud_music_uploads -->
<g id="node12" class="node">
<title>icloud_music_uploads</title>
<ellipse fill="yellow" stroke="black" cx="198" cy="-91" rx="118.08" ry="18"/>
<text text-anchor="middle" x="198" y="-87.3" font-family="Calibri" font-size="14.00">icloud&#45;music&#45;uploads[&#45;lossy]</text>
</g>
<!-- remove_itunes_download -->
<g id="node22" class="node">
<title>remove_itunes_download</title>
<polygon fill="lightblue" stroke="black" points="280,-36 116,-36 116,0 280,0 280,-36"/>
<text text-anchor="middle" x="198" y="-14.3" font-family="Calibri" font-size="14.00">Remove iTunes download</text>
</g>
<!-- icloud_music_uploads&#45;&gt;remove_itunes_download -->
<g id="edge12" class="edge">
<title>icloud_music_uploads&#45;&gt;remove_itunes_download</title>
<path fill="none" stroke="black" d="M198,-72.81C198,-65.23 198,-56.1 198,-47.54"/>
<polygon fill="black" stroke="black" points="201.5,-47.54 198,-37.54 194.5,-47.54 201.5,-47.54"/>
</g>
<!-- rip_media&#45;&gt;is_vgmdb_available -->
<g id="edge18" class="edge">
<title>rip_media&#45;&gt;is_vgmdb_available</title>
<path fill="none" stroke="black" d="M302,-749.51C302,-730.07 302,-697.82 302,-670.62"/>
<polygon fill="black" stroke="black" points="305.5,-670.84 302,-660.84 298.5,-670.84 305.5,-670.84"/>
</g>
<!-- acquire_lossless -->
<g id="node16" class="node">
<title>acquire_lossless</title>
<polygon fill="lightblue" stroke="black" points="260,-732 152,-732 152,-696 260,-696 260,-732"/>
<text text-anchor="middle" x="206" y="-710.3" font-family="Calibri" font-size="14.00">Acquire lossless</text>
</g>
<!-- supported_lossy_format&#45;&gt;acquire_lossless -->
<g id="edge22" class="edge">
<title>supported_lossy_format&#45;&gt;acquire_lossless</title>
<path fill="none" stroke="black" d="M85.1,-803.61C109.46,-785.75 146.56,-758.56 173.23,-739.01"/>
<polygon fill="black" stroke="black" points="174.98,-742.07 180.98,-733.34 170.84,-736.43 174.98,-742.07"/>
</g>
<!-- copy_to_itunes_media -->
<g id="node20" class="node">
<title>copy_to_itunes_media</title>
<polygon fill="lightblue" stroke="black" points="263.5,-259 132.5,-259 132.5,-221 263.5,-221 263.5,-259"/>
<text text-anchor="middle" x="198" y="-243.8" font-family="Calibri" font-size="14.00">Copy to</text>
<text text-anchor="middle" x="198" y="-228.8" font-family="Calibri" font-size="14.00">iTunes Media folder</text>
</g>
<!-- supported_lossy_format&#45;&gt;copy_to_itunes_media -->
<g id="edge21" class="edge">
<title>supported_lossy_format&#45;&gt;copy_to_itunes_media</title>
<path fill="none" stroke="black" d="M60,-803.82C60,-782.54 60,-746.21 60,-715 60,-715 60,-715 60,-314 60,-281.86 89.62,-263.83 121.41,-253.74"/>
<polygon fill="black" stroke="black" points="122.14,-257.17 130.78,-251.03 120.2,-250.44 122.14,-257.17"/>
</g>
<!-- unsupported_lossy_format&#45;&gt;acquire_lossless -->
<g id="edge24" class="edge">
<title>unsupported_lossy_format&#45;&gt;acquire_lossless</title>
<path fill="none" stroke="black" d="M206,-803.85C206,-787.34 206,-762.69 206,-743.55"/>
<polygon fill="black" stroke="black" points="209.5,-743.69 206,-733.69 202.5,-743.69 209.5,-743.69"/>
</g>
<!-- acquire_lossless&#45;&gt;is_vgmdb_available -->
<g id="edge25" class="edge">
<title>acquire_lossless&#45;&gt;is_vgmdb_available</title>
<path fill="none" stroke="black" d="M224.06,-695.88C236.13,-684.44 252.42,-669 266.99,-655.19"/>
<polygon fill="black" stroke="black" points="269.37,-657.75 274.22,-648.34 264.55,-652.67 269.37,-657.75"/>
</g>
<!-- convert_flac_to_alac&#45;&gt;copy_to_itunes_media -->
<g id="edge14" class="edge">
<title>convert_flac_to_alac&#45;&gt;copy_to_itunes_media</title>
<path fill="none" stroke="black" d="M314.51,-424.54C304.48,-392.45 284.57,-337.06 256,-296 248.66,-285.45 239.03,-275.33 229.74,-266.71"/>
<polygon fill="black" stroke="black" points="232.3,-264.3 222.51,-260.26 227.64,-269.53 232.3,-264.3"/>
</g>
<!-- vgmdb_scripts -->
<g id="node19" class="node">
<title>vgmdb_scripts</title>
<polygon fill="lightblue" stroke="black" points="247,-334 149,-334 149,-296 247,-296 247,-334"/>
<text text-anchor="middle" x="198" y="-318.8" font-family="Calibri" font-size="14.00">Retag with</text>
<text text-anchor="middle" x="198" y="-303.8" font-family="Calibri" font-size="14.00">vgmdb scripts</text>
</g>
<!-- convert_to_alac&#45;&gt;vgmdb_scripts -->
<g id="edge8" class="edge">
<title>convert_to_alac&#45;&gt;vgmdb_scripts</title>
<path fill="none" stroke="black" d="M198,-370.57C198,-363.1 198,-354.17 198,-345.71"/>
<polygon fill="black" stroke="black" points="201.5,-345.79 198,-335.79 194.5,-345.79 201.5,-345.79"/>
</g>
<!-- vgmdb_scripts&#45;&gt;copy_to_itunes_media -->
<g id="edge9" class="edge">
<title>vgmdb_scripts&#45;&gt;copy_to_itunes_media</title>
<path fill="none" stroke="black" d="M198,-295.58C198,-288.06 198,-279.17 198,-270.77"/>
<polygon fill="black" stroke="black" points="201.5,-270.93 198,-260.93 194.5,-270.93 201.5,-270.93"/>
</g>
<!-- add_to_icloud_library -->
<g id="node21" class="node">
<title>add_to_icloud_library</title>
<polygon fill="lightblue" stroke="black" points="265,-184 131,-184 131,-146 265,-146 265,-184"/>
<text text-anchor="middle" x="198" y="-168.8" font-family="Calibri" font-size="14.00">Add to</text>
<text text-anchor="middle" x="198" y="-153.8" font-family="Calibri" font-size="14.00">iCloud Music Library</text>
</g>
<!-- copy_to_itunes_media&#45;&gt;add_to_icloud_library -->
<g id="edge10" class="edge">
<title>copy_to_itunes_media&#45;&gt;add_to_icloud_library</title>
<path fill="none" stroke="black" d="M198,-220.58C198,-213.06 198,-204.17 198,-195.77"/>
<polygon fill="black" stroke="black" points="201.5,-195.93 198,-185.93 194.5,-195.93 201.5,-195.93"/>
</g>
<!-- add_to_icloud_library&#45;&gt;icloud_music_uploads -->
<g id="edge11" class="edge">
<title>add_to_icloud_library&#45;&gt;icloud_music_uploads</title>
<path fill="none" stroke="black" d="M198,-145.83C198,-138.24 198,-129.24 198,-120.79"/>
<polygon fill="black" stroke="black" points="201.5,-120.93 198,-110.93 194.5,-120.93 201.5,-120.93"/>
</g>
</g>
</svg>
